<svg xmlns="http://www.w3.org/2000/svg" width="350" height="350" viewBox="0 0 350 350"><path fill="#151515" fill-rule="evenodd" d="M141.405178 0L10.3481961 350H3L134.056982 0h7.348196zm25.070898 0L35.4190942 350h-7.3481961L159.12788 0h7.348196zm25.070898 0L60.4899922 350h-7.3481961L184.198778 0h7.348196zm21.394304 9.83000183l-8.753791 23.38498687 118.74163 316.7850033h-7.348196L200.545905 42.9399948l-8.708789 23.2549973L297.858212 349.999992h-7.348197L188.105491 76.159996l-8.66877 23.1500016L272.787306 350h-7.348196l-16.917359-45.5H102.603304L85.5658974 350h-7.3481962L209.274683 0h7.348196L348 350h-7.348196L212.941278 9.83000183zM175.825157 108.954987l-44.764458 119.544998h89.208785l-44.444327-119.544998zm53.018055 142.604995l-6.042628-16.245002h-94.290997l-6.082646 16.245002h106.416271zm-108.972383 6.82l-6.082639 16.245003h123.628749l-6.042628-16.245003H119.870829zm126.119838 39.305l-6.042629-16.245002h-128.71096l-6.082647 16.245002h140.836236z"/></svg>
